HIERARCHY
ROOT Hips
{
 OFFSET 0.000000 0.000000 0.000000
 CHANNELS 6 Xposition Yposition Zposition Yrotation Xrotation Zrotation
 JOINT Chest
 {
  OFFSET 0.000000 11.395451 -0.039534
  CHANNELS 3 Yrotation Xrotation Zrotation
  JOINT Chest2
  {
   OFFSET 0.000000 9.398669 0.071813
   CHANNELS 3 Yrotation Xrotation Zrotation
   JOINT Chest3
   {
    OFFSET 0.000000 8.489801 0.000000
    CHANNELS 3 Yrotation Xrotation Zrotation
    JOINT Chest4
    {
     OFFSET 0.000000 8.489801 0.000000
     CHANNELS 3 Yrotation Xrotation Zrotation
     JOINT Neck
     {
      OFFSET 0.000000 12.404889 0.000000
      CHANNELS 3 Yrotation Xrotation Zrotation
      JOINT Head
      {
       OFFSET 0.000000 8.903270 0.092239
       CHANNELS 3 Yrotation Xrotation Zrotation
       End Site
       {
        OFFSET 0.000000 17.592497 0.007158
       }
      }
     }
     JOINT RightCollar
     {
      OFFSET -3.196775 6.966722 0.000000
      CHANNELS 3 Yrotation Xrotation Zrotation
      JOINT RightShoulder
      {
       OFFSET -15.955896 0.000000 0.000000
       CHANNELS 3 Yrotation Xrotation Zrotation
       JOINT RightElbow
       {
        OFFSET -24.792472 0.000000 0.000000
        CHANNELS 3 Yrotation Xrotation Zrotation
        JOINT RightWrist
        {
         OFFSET -20.900115 0.000000 0.025002
         CHANNELS 3 Yrotation Xrotation Zrotation
         End Site
         {
          OFFSET -16.056692 0.000000 0.000000
         }
        }
       }
      }
     }
     JOINT LeftCollar
     {
      OFFSET 3.196775 6.966722 0.000000
      CHANNELS 3 Yrotation Xrotation Zrotation
      JOINT LeftShoulder
      {
       OFFSET 15.955896 0.000000 0.000000
       CHANNELS 3 Yrotation Xrotation Zrotation
       JOINT LeftElbow
       {
        OFFSET 24.792472 0.000000 0.000000
        CHANNELS 3 Yrotation Xrotation Zrotation
        JOINT LeftWrist
        {
         OFFSET 20.900115 0.000000 0.025002
         CHANNELS 3 Yrotation Xrotation Zrotation
         End Site
         {
          OFFSET 16.056692 0.000000 0.000000
         }
        }
       }
      }
     }
    }
   }
  }
 }
 JOINT RightHip
 {
  OFFSET -9.568995 0.193718 0.019767
  CHANNELS 3 Yrotation Xrotation Zrotation
  JOINT RightKnee
  {
   OFFSET 0.000000 -56.649296 0.015402
   CHANNELS 3 Yrotation Xrotation Zrotation
   JOINT RightAnkle
   {
    OFFSET 0.000000 -41.365147 0.021264
    CHANNELS 3 Yrotation Xrotation Zrotation
    JOINT RightToe
    {
     OFFSET 0.000000 -7.465940 17.672538
     CHANNELS 3 Yrotation Xrotation Zrotation
     End Site
     {
      OFFSET 0.000000 -1.736315 7.837145
     }
    }
   }
  }
 }
 JOINT LeftHip
 {
  OFFSET 9.568995 0.193718 0.019767
  CHANNELS 3 Yrotation Xrotation Zrotation
  JOINT LeftKnee
  {
   OFFSET 0.000000 -56.649296 0.015402
   CHANNELS 3 Yrotation Xrotation Zrotation
   JOINT LeftAnkle
   {
    OFFSET 0.000000 -41.365147 0.021264
    CHANNELS 3 Yrotation Xrotation Zrotation
    JOINT LeftToe
    {
     OFFSET 0.000000 -7.465940 17.672538
     CHANNELS 3 Yrotation Xrotation Zrotation
     End Site
     {
      OFFSET 0.000000 -1.736315 7.837145
     }
    }
   }
  }
 }
}
MOTION
Frames: 12
Frame Time: 0.016667
-128.711033 106.532989 433.809673 36.745257 -8.416520 -1.364394 1.148785 5.096255 0.962231 0.499474 2.267372 0.414595 0.499474 2.267372 0.414595 0.373018 1.700870 0.309052 -0.043917 14.209371 -0.981396 0.301854 -9.791481 -1.830825 -1.488558 6.563356 8.184060 11.827997 -11.596311 75.335826 2.845136 0.279122 0.184179 -3.156812 -2.001625 2.659551 -2.446487 7.467202 -7.196794 -1.282833 -14.476493 -75.955856 -4.175028 2.367374 -0.895420 5.424616 -1.233711 -3.585455 2.017283 13.230477 0.792942 -1.589972 0.741465 0.158403 -0.007697 -7.790357 -0.841509 0.000000 0.000000 0.000000 2.142471 12.006760 0.525752 0.399853 6.708129 0.020919 11.130554 -10.692837 -0.371353 0.000000 0.000000 0.000000
-128.708132 106.504946 433.802353 36.881836 -8.338971 -1.344793 1.155851 5.080645 0.944638 0.502841 2.260406 0.406748 0.502841 2.260406 0.406748 0.375577 1.695642 0.303161 -0.125232 14.170264 -1.017358 0.163407 -9.864911 -1.867101 -1.459021 6.505803 8.184527 11.676488 -11.481749 75.398067 1.994476 0.008820 -0.237500 -3.228413 -1.933337 2.687108 -2.422689 7.400500 -7.236732 -1.148874 -14.370608 -75.986199 -3.715229 2.379014 -0.712289 5.462161 -1.194194 -3.630959 2.027468 13.150670 0.771779 -1.801134 0.717004 0.184629 0.035360 -7.758888 -0.854860 0.000000 0.000000 -0.000000 2.055445 11.889832 0.510892 0.382726 6.769081 -0.022172 11.084359 -10.731212 -0.345237 -0.000000 -0.000000 0.000000
-128.705231 106.476903 433.795033 37.018414 -8.261468 -1.325009 1.162906 5.065086 0.926995 0.506200 2.253461 0.398879 0.506201 2.253461 0.398879 0.378131 1.690428 0.297253 -0.206565 14.131235 -1.053306 0.024884 -9.938186 -1.903277 -1.429536 6.448234 8.184787 11.525195 -11.367110 75.460392 1.145449 -0.268985 -0.653516 -3.299578 -1.864093 2.713135 -2.398936 7.333907 -7.276894 -1.014953 -14.264769 -76.015844 -3.256234 2.388566 -0.526730 5.499824 -1.154116 -3.675835 2.037664 13.070928 0.750392 -2.012315 0.692620 0.210860 0.078408 -7.727413 -0.868197 0.000000 0.000000 0.000000 1.968518 11.772855 0.496043 0.365573 6.830061 -0.065234 11.038134 -10.769566 -0.319098 -0.000000 -0.000000 -0.000000
-128.704223 106.454318 433.790132 37.139974 -8.187790 -1.308546 1.170101 5.049161 0.909197 0.509623 2.246353 0.390940 0.509623 2.246353 0.390940 0.380731 1.685093 0.291294 -0.274402 14.098771 -1.078565 -0.092539 -9.999177 -1.924495 -1.404301 6.388080 8.188173 11.363571 -11.246718 75.505746 0.374680 -0.515412 -1.028810 -3.363315 -1.797082 2.731553 -2.378752 7.272356 -7.319868 -0.880824 -14.161779 -76.035926 -2.811273 2.398900 -0.339012 5.541296 -1.112641 -3.720048 2.046132 12.995872 0.735048 -2.205969 0.679395 0.228098 0.118628 -7.697405 -0.872254 0.000000 -0.000000 -0.000000 1.890207 11.662255 0.484622 0.348864 6.890326 -0.102766 11.001059 -10.806550 -0.301009 0.000000 0.000000 0.000000
-128.705946 106.440014 433.790071 37.240536 -8.118700 -1.297155 1.178786 5.031527 0.890961 0.513716 2.238486 0.382797 0.513716 2.238486 0.382797 0.383835 1.679189 0.285179 -0.324430 14.076934 -1.088530 -0.182596 -10.040319 -1.923766 -1.384759 6.322512 8.198134 11.181772 -11.113455 75.527490 -0.299043 -0.705135 -1.357255 -3.416065 -1.730925 2.737254 -2.363670 7.218392 -7.367037 -0.745564 -14.061627 -76.042236 -2.378473 2.420903 -0.145272 5.589919 -1.067409 -3.765783 2.053336 12.929284 0.730015 -2.375465 0.681061 0.230741 0.153906 -7.668281 -0.860607 0.000000 -0.000000 0.000000 1.822962 11.561160 0.478525 0.331576 6.948825 -0.132507 10.978784 -10.842410 -0.295083 -0.000000 0.000000 -0.000000
-128.709562 106.431169 433.792429 37.326075 -8.053400 -1.289172 1.187611 5.013512 0.872579 0.517871 2.230450 0.374588 0.517871 2.230450 0.374588 0.386987 1.673157 0.279015 -0.360955 14.061608 -1.087820 -0.251512 -10.069268 -1.908158 -1.369489 6.254336 8.211278 10.989583 -10.974369 75.531936 -0.895361 -0.859293 -1.649143 -3.461421 -1.667664 2.735885 -2.352139 7.169448 -7.416898 -0.610010 -13.964531 -76.039159 -1.959519 2.443790 0.050175 5.642271 -1.020762 -3.810807 2.058803 12.867318 0.731140 -2.527418 0.693796 0.224378 0.186386 -7.640623 -0.839717 0.000000 -0.000000 0.000000 1.764275 11.466470 0.475865 0.314735 7.006586 -0.156744 10.965685 -10.876920 -0.297224 0.000000 0.000000 0.000000
-128.714450 106.424777 433.792362 37.399502 -7.993313 -1.283017 1.192673 4.998700 0.854833 0.520341 2.223831 0.366695 0.520341 2.223831 0.366695 0.388872 1.668187 0.273093 -0.383384 14.046985 -1.079599 -0.296845 -10.096773 -1.883929 -1.358368 6.189448 8.220733 10.805839 -10.845023 75.521465 -1.395609 -1.006580 -1.895292 -3.503301 -1.615658 2.737937 -2.343054 7.122773 -7.467660 -0.476548 -13.873661 -76.030854 -1.572979 2.438336 0.233936 5.691901 -0.979092 -3.848602 2.059385 12.803140 0.732094 -2.664139 0.717338 0.216755 0.219624 -7.617656 -0.819649 0.000000 0.000000 0.000000 1.715207 11.375283 0.474370 0.301883 7.065984 -0.176797 10.954034 -10.908030 -0.303190 -0.000000 0.000000 0.000000
-128.720293 106.420546 433.787537 37.462090 -7.937733 -1.278236 1.191822 4.988058 0.837927 0.520167 2.219056 0.359226 0.520167 2.219055 0.359226 0.388771 1.664599 0.267497 -0.388536 14.029730 -1.063279 -0.312781 -10.129007 -1.851258 -1.351698 6.129632 8.223275 10.635020 -10.729813 75.494356 -1.793319 -1.154441 -2.091647 -3.546873 -1.577236 2.751706 -2.336092 7.076237 -7.521174 -0.342627 -13.790486 -76.018885 -1.218674 2.387395 0.404783 5.735926 -0.946121 -3.874547 2.047111 12.731570 0.728840 -2.784200 0.754884 0.210109 0.257318 -7.599814 -0.801889 0.000000 0.000000 0.000000 1.676444 11.284517 0.472657 0.295145 7.129014 -0.191853 10.941023 -10.933408 -0.314045 -0.000000 -0.000000 -0.000000
-128.727408 106.418768 433.780287 37.512567 -7.887357 -1.275337 1.187208 4.980597 0.821695 0.518308 2.215690 0.352089 0.518308 2.215690 0.352089 0.387406 1.662068 0.262154 -0.379589 14.013133 -1.039466 -0.305115 -10.159901 -1.810010 -1.349142 6.073141 8.222237 10.472540 -10.624458 75.452328 -2.095405 -1.292835 -2.243361 -3.587315 -1.549993 2.769526 -2.331571 7.031916 -7.575523 -0.210772 -13.713548 -76.001935 -0.896831 2.308835 0.562353 5.777227 -0.918479 -3.893549 2.029962 12.657786 0.725493 -2.889034 0.803237 0.202108 0.295765 -7.586665 -0.784953 0.000000 0.000000 0.000000 1.647274 11.197270 0.472080 0.292412 7.193682 -0.202709 10.929463 -10.955384 -0.328728 -0.000000 -0.000000 -0.000000
-128.736122 106.417315 433.772770 37.550033 -7.845725 -1.274183 1.181386 4.976973 0.806375 0.515894 2.214031 0.345359 0.515894 2.214031 0.345359 0.385621 1.660816 0.257117 -0.365493 14.001351 -1.013099 -0.288813 -10.181809 -1.765945 -1.349600 6.020590 8.220594 10.323606 -10.531521 75.403096 -2.303207 -1.424524 -2.354129 -3.613617 -1.535235 2.778113 -2.329353 6.993347 -7.623272 -0.091003 -13.641505 -75.979884 -0.626457 2.226485 0.694240 5.818059 -0.891973 -3.913479 2.028714 12.590504 0.727881 -2.985233 0.852570 0.193665 0.327395 -7.580142 -0.774433 0.000000 -0.000000 0.000000 1.626665 11.119909 0.474466 0.290876 7.256396 -0.213097 10.920050 -10.978902 -0.339800 0.000000 0.000000 0.000000
-128.746828 106.415469 433.765951 37.575861 -7.815078 -1.275138 1.173422 4.978617 0.791310 0.512517 2.214710 0.338751 0.512517 2.214710 0.338751 0.383112 1.661318 0.252174 -0.347184 13.994433 -0.983387 -0.265951 -10.194661 -1.717201 -1.352879 5.971605 8.219825 10.187623 -10.450387 75.347737 -2.406820 -1.553338 -2.422009 -3.620115 -1.534437 2.771351 -2.330155 6.963944 -7.660196 0.014408 -13.572834 -75.952150 -0.418071 2.140150 0.794331 5.863611 -0.863187 -3.939498 2.049474 12.531584 0.739241 -3.075252 0.905056 0.183456 0.348399 -7.584907 -0.773374 0.000000 0.000000 0.000000 1.614903 11.054488 0.481195 0.287076 7.318393 -0.224415 10.913446 -11.007327 -0.343966 -0.000000 -0.000000 0.000000
-128.759133 106.413949 433.758864 37.588681 -7.793171 -1.277877 1.164253 4.984087 0.777164 0.508587 2.217090 0.332554 0.508587 2.217090 0.332554 0.380186 1.663096 0.247539 -0.323705 13.992336 -0.951115 -0.234408 -10.198523 -1.665640 -1.359159 5.926563 8.218510 10.065141 -10.381780 75.285240 -2.416626 -1.674901 -2.449295 -3.612499 -1.546487 2.755790 -2.333257 6.940251 -7.690479 0.107749 -13.508939 -75.919524 -0.260671 2.051017 0.868206 5.908708 -0.835577 -3.966585 2.086100 12.479153 0.756302 -3.156644 0.958518 0.172834 0.362569 -7.596306 -0.778709 0.000000 -0.000000 -0.000000 1.611679 10.998958 0.490885 0.284471 7.378433 -0.235282 10.908992 -11.037296 -0.344525 0.000000 0.000000 -0.000000
